<mxfile host="app.diagrams.net" modified="2023-03-29T11:13:00.001Z" agent="Mozilla/5.0 (Windows NT 10.0; Win64; x64) AppleWebKit/537.36 (KHTML, like Gecko) Chrome/111.0.0.0 Safari/537.36 Edg/111.0.1661.54" etag="XwSv_BAViD-mbZ3eJKWb" version="21.1.1" type="github">
  <diagram name="第 1 页" id="H3rtifVKTXqs-qG-SYUc">
    <mxGraphModel dx="497" dy="576" grid="1" gridSize="10" guides="1" tooltips="1" connect="1" arrows="0" fold="1" page="0" pageScale="1" pageWidth="827" pageHeight="1169" math="1" shadow="0">
      <root>
        <mxCell id="0" />
        <mxCell id="1" parent="0" />
        <mxCell id="tOTkukjx_mw6msrrEpYW-15" style="rounded=0;orthogonalLoop=1;jettySize=auto;html=1;exitX=1;exitY=0.5;exitDx=0;exitDy=0;entryX=0;entryY=0;entryDx=0;entryDy=0;endArrow=open;endFill=0;" edge="1" parent="1" source="tOTkukjx_mw6msrrEpYW-1" target="tOTkukjx_mw6msrrEpYW-14">
          <mxGeometry relative="1" as="geometry" />
        </mxCell>
        <mxCell id="tOTkukjx_mw6msrrEpYW-1" value="$$w_1$$" style="ellipse;whiteSpace=wrap;html=1;aspect=fixed;fillColor=#C6D9F5;" vertex="1" parent="1">
          <mxGeometry x="600" y="220" width="40" height="40" as="geometry" />
        </mxCell>
        <mxCell id="tOTkukjx_mw6msrrEpYW-16" style="rounded=0;orthogonalLoop=1;jettySize=auto;html=1;exitX=1;exitY=0.5;exitDx=0;exitDy=0;entryX=0;entryY=0.5;entryDx=0;entryDy=0;endArrow=open;endFill=0;" edge="1" parent="1" source="tOTkukjx_mw6msrrEpYW-2" target="tOTkukjx_mw6msrrEpYW-14">
          <mxGeometry relative="1" as="geometry" />
        </mxCell>
        <mxCell id="tOTkukjx_mw6msrrEpYW-2" value="$$w_2$$" style="ellipse;whiteSpace=wrap;html=1;aspect=fixed;fillColor=#C6D9F5;" vertex="1" parent="1">
          <mxGeometry x="600" y="270" width="40" height="40" as="geometry" />
        </mxCell>
        <mxCell id="tOTkukjx_mw6msrrEpYW-17" style="rounded=0;orthogonalLoop=1;jettySize=auto;html=1;exitX=1;exitY=0.5;exitDx=0;exitDy=0;entryX=0;entryY=1;entryDx=0;entryDy=0;endArrow=open;endFill=0;" edge="1" parent="1" source="tOTkukjx_mw6msrrEpYW-3" target="tOTkukjx_mw6msrrEpYW-14">
          <mxGeometry relative="1" as="geometry" />
        </mxCell>
        <mxCell id="tOTkukjx_mw6msrrEpYW-3" value="$$w_n$$" style="ellipse;whiteSpace=wrap;html=1;aspect=fixed;fillColor=#C6D9F5;" vertex="1" parent="1">
          <mxGeometry x="600" y="350" width="40" height="40" as="geometry" />
        </mxCell>
        <mxCell id="tOTkukjx_mw6msrrEpYW-4" value="$$\vdots$$" style="text;html=1;align=center;verticalAlign=middle;resizable=0;points=[];autosize=1;strokeColor=none;fillColor=none;" vertex="1" parent="1">
          <mxGeometry x="580" y="315" width="80" height="30" as="geometry" />
        </mxCell>
        <mxCell id="tOTkukjx_mw6msrrEpYW-5" value="$$x_1$$" style="text;html=1;align=center;verticalAlign=middle;resizable=0;points=[];autosize=1;strokeColor=none;fillColor=none;" vertex="1" parent="1">
          <mxGeometry x="490" y="225" width="70" height="30" as="geometry" />
        </mxCell>
        <mxCell id="tOTkukjx_mw6msrrEpYW-6" value="$$x_2$$" style="text;html=1;align=center;verticalAlign=middle;resizable=0;points=[];autosize=1;strokeColor=none;fillColor=none;" vertex="1" parent="1">
          <mxGeometry x="485" y="275" width="70" height="30" as="geometry" />
        </mxCell>
        <mxCell id="tOTkukjx_mw6msrrEpYW-7" value="$$x_n$$" style="text;html=1;align=center;verticalAlign=middle;resizable=0;points=[];autosize=1;strokeColor=none;fillColor=none;" vertex="1" parent="1">
          <mxGeometry x="485" y="355" width="70" height="30" as="geometry" />
        </mxCell>
        <mxCell id="tOTkukjx_mw6msrrEpYW-10" value="" style="endArrow=open;html=1;rounded=0;endFill=0;" edge="1" parent="1">
          <mxGeometry width="50" height="50" relative="1" as="geometry">
            <mxPoint x="540" y="239.5" as="sourcePoint" />
            <mxPoint x="590" y="239.5" as="targetPoint" />
          </mxGeometry>
        </mxCell>
        <mxCell id="tOTkukjx_mw6msrrEpYW-11" value="" style="endArrow=open;html=1;rounded=0;endFill=0;" edge="1" parent="1">
          <mxGeometry width="50" height="50" relative="1" as="geometry">
            <mxPoint x="540" y="289.5" as="sourcePoint" />
            <mxPoint x="590" y="289.5" as="targetPoint" />
          </mxGeometry>
        </mxCell>
        <mxCell id="tOTkukjx_mw6msrrEpYW-12" value="" style="endArrow=open;html=1;rounded=0;endFill=0;" edge="1" parent="1">
          <mxGeometry width="50" height="50" relative="1" as="geometry">
            <mxPoint x="540" y="369.5" as="sourcePoint" />
            <mxPoint x="590" y="369.5" as="targetPoint" />
          </mxGeometry>
        </mxCell>
        <mxCell id="tOTkukjx_mw6msrrEpYW-13" value="输入" style="text;html=1;align=center;verticalAlign=middle;resizable=0;points=[];autosize=1;strokeColor=none;fillColor=none;" vertex="1" parent="1">
          <mxGeometry x="450" y="285" width="50" height="30" as="geometry" />
        </mxCell>
        <mxCell id="tOTkukjx_mw6msrrEpYW-21" style="edgeStyle=orthogonalEdgeStyle;rounded=0;orthogonalLoop=1;jettySize=auto;html=1;exitX=1;exitY=0.5;exitDx=0;exitDy=0;endArrow=open;endFill=0;" edge="1" parent="1" source="tOTkukjx_mw6msrrEpYW-22">
          <mxGeometry relative="1" as="geometry">
            <mxPoint x="870" y="290" as="targetPoint" />
          </mxGeometry>
        </mxCell>
        <mxCell id="tOTkukjx_mw6msrrEpYW-14" value="$$\sum$$" style="ellipse;whiteSpace=wrap;html=1;aspect=fixed;fillColor=#D5E8D4;" vertex="1" parent="1">
          <mxGeometry x="750" y="270" width="40" height="40" as="geometry" />
        </mxCell>
        <mxCell id="tOTkukjx_mw6msrrEpYW-20" style="edgeStyle=orthogonalEdgeStyle;rounded=0;orthogonalLoop=1;jettySize=auto;html=1;exitX=0.5;exitY=1;exitDx=0;exitDy=0;entryX=0.5;entryY=0;entryDx=0;entryDy=0;endArrow=open;endFill=0;" edge="1" parent="1" source="tOTkukjx_mw6msrrEpYW-18" target="tOTkukjx_mw6msrrEpYW-14">
          <mxGeometry relative="1" as="geometry" />
        </mxCell>
        <mxCell id="tOTkukjx_mw6msrrEpYW-18" value="$$b$$" style="ellipse;whiteSpace=wrap;html=1;aspect=fixed;fillColor=#FFF2CC;" vertex="1" parent="1">
          <mxGeometry x="750" y="160" width="40" height="40" as="geometry" />
        </mxCell>
        <mxCell id="tOTkukjx_mw6msrrEpYW-19" value="偏置" style="text;html=1;align=center;verticalAlign=middle;resizable=0;points=[];autosize=1;strokeColor=none;fillColor=none;" vertex="1" parent="1">
          <mxGeometry x="745" y="130" width="50" height="30" as="geometry" />
        </mxCell>
        <mxCell id="tOTkukjx_mw6msrrEpYW-23" style="edgeStyle=orthogonalEdgeStyle;rounded=0;orthogonalLoop=1;jettySize=auto;html=1;exitX=1;exitY=0.5;exitDx=0;exitDy=0;endArrow=open;endFill=0;" edge="1" parent="1" source="tOTkukjx_mw6msrrEpYW-22">
          <mxGeometry relative="1" as="geometry">
            <mxPoint x="940" y="290" as="targetPoint" />
          </mxGeometry>
        </mxCell>
        <mxCell id="tOTkukjx_mw6msrrEpYW-24" value="" style="edgeStyle=orthogonalEdgeStyle;rounded=0;orthogonalLoop=1;jettySize=auto;html=1;exitX=1;exitY=0.5;exitDx=0;exitDy=0;endArrow=open;endFill=0;" edge="1" parent="1" source="tOTkukjx_mw6msrrEpYW-14" target="tOTkukjx_mw6msrrEpYW-22">
          <mxGeometry relative="1" as="geometry">
            <mxPoint x="870" y="290" as="targetPoint" />
            <mxPoint x="790" y="290" as="sourcePoint" />
          </mxGeometry>
        </mxCell>
        <mxCell id="tOTkukjx_mw6msrrEpYW-22" value="$$\varphi&lt;br&gt;(\cdot)$$" style="ellipse;whiteSpace=wrap;html=1;aspect=fixed;fillColor=#D5E8D4;" vertex="1" parent="1">
          <mxGeometry x="840" y="270" width="40" height="40" as="geometry" />
        </mxCell>
        <mxCell id="tOTkukjx_mw6msrrEpYW-25" value="激活函数" style="text;html=1;align=center;verticalAlign=middle;resizable=0;points=[];autosize=1;strokeColor=none;fillColor=none;" vertex="1" parent="1">
          <mxGeometry x="825" y="315" width="70" height="30" as="geometry" />
        </mxCell>
        <mxCell id="tOTkukjx_mw6msrrEpYW-26" value="求和" style="text;html=1;align=center;verticalAlign=middle;resizable=0;points=[];autosize=1;strokeColor=none;fillColor=none;" vertex="1" parent="1">
          <mxGeometry x="745" y="315" width="50" height="30" as="geometry" />
        </mxCell>
        <mxCell id="tOTkukjx_mw6msrrEpYW-27" value="输出" style="text;html=1;align=center;verticalAlign=middle;resizable=0;points=[];autosize=1;strokeColor=none;fillColor=none;" vertex="1" parent="1">
          <mxGeometry x="945" y="275" width="50" height="30" as="geometry" />
        </mxCell>
      </root>
    </mxGraphModel>
  </diagram>
</mxfile>
